Patient4_TMGait_0pt4_01_left_32_EMG.mot
version=1
nRows=30
nColumns=33
inDegrees=no
endheader
time	1LAddLong	2LGlutMax	3LGlutMed	4LIliopsoas	5LSemiMemb	6LBicFemLong	7LRecFem	8LVastMed	9LVastLat	10LGasMed	11LTibAnt	12lTibPost	13LPeroneusLong	14LSol	15LExtDigLong	16LFlexDigLong	17RAddLong	18RGlutMax	19RGlutMed	20RIliopsoas	21RSemiMemb	22RBicFemLong	23RRecFem	24RVastMed	25RVastLat	26RGasMed	27RTibAnt	28RTibPost	29RPeroneusLong	30RSol	31RExtDigLong	32RFlexDigLong
39.89	0.027161	0.015259	0.019073	0.019379	0.029907	0.17517	-0.056458	0.000763	-0.23621	-0.040894	-0.12405	-0.004883	-0.28976	0.12665	0.098572	-0.015411	-0.020599	0.30655	-0.45532	-0.07843	-0.059967	0.028534	0.4097	0.035095	-0.010529	-0.06958	0.030212	-0.3212	-0.17716	0.052338	-0.003052	-0.011139
39.891	0.018768	0.076447	-0.027161	-0.001221	0.016632	0.2153	-0.097198	0.007324	-0.15106	-0.059967	-0.10025	-0.007782	-0.054016	0.1442	0.058746	-0.004578	-0.007782	0.25497	-0.37949	-0.025177	-0.067444	0.010529	0.41245	0.049896	-0.010223	-0.085449	-0.015869	-0.55435	0.62485	-0.11231	-0.001678	-0.015106
39.892	0.0177	0.103	-0.059967	-0.004578	0.015259	0.29633	-0.19653	0.009613	-0.02121	-0.06073	0.036163	-0.00473	-0.16434	0.21545	-0.065918	0.005035	-0.000153	0.18631	-0.42572	0.010681	-0.0737	-0.002441	0.42236	0.022583	-0.012207	-0.068207	-0.10025	0.46478	0.066376	-0.67307	-0.00061	-0.021973
39.893	0.020447	0.19959	-0.095673	-0.010071	0.00061	0.37903	-0.2388	0.000916	0.087585	-0.061951	0.2385	-0.003815	-0.31891	0.15015	0.42984	-0.002899	0.010223	0.12024	-0.39276	-0.02243	-0.073547	-0.003967	0.37888	0.014191	0.001984	-0.047455	-0.10742	0.41687	0.69504	-0.63324	-0.002899	-0.024719
39.894	0.012817	0.21225	-0.097961	-0.016327	-0.017853	0.35385	-0.28488	-0.020752	0.077362	-0.020142	0.29068	-0.009003	0.052795	0.015717	0.066833	-0.008545	0.031281	-0.002441	-0.27969	-0.021973	-0.084076	0.009155	0.40359	0.019989	-0.018005	-0.031281	-0.069885	0.20874	0.70923	-0.070953	0.003204	-0.013123
39.895	0.01358	0.24841	-0.062408	-0.012817	-0.017548	0.29694	-0.31586	-0.016632	0.023651	-0.011597	0.25803	-0.001984	1.008	-0.057678	-0.38162	-0.003815	0.04837	-0.084076	-0.16281	0.012512	-0.08606	-0.0177	0.38269	-0.009308	0.000153	-0.002136	-0.083313	0.063477	0.93796	1.004	-0.001678	-0.008392
39.896	0	0.27527	-0.039825	0.018158	-0.021362	0.040588	-0.36057	-0.015259	0.019226	0.000305	0.23132	0.008392	0.68863	-0.031128	-0.39475	0.002899	0.053101	-0.19806	-0.31921	0.033875	-0.097046	-0.006256	0.38925	-0.066528	0.004883	0.002594	0.030823	0.045166	0.62882	0.6955	-0.001373	-0.008545
39.897	-0.001526	0.30731	0.034943	-0.006104	-0.019531	0.007935	-0.36606	-0.002289	0.045471	-0.027924	-0.16846	0.000153	0.37949	0.015869	-0.16464	-0.003052	0.025482	-0.31464	-0.34607	0.033569	-0.094147	-0.024414	0.43533	-0.03891	-0.009613	0.016479	0.067596	0.019684	0.48981	-0.10788	-0.001526	-0.00473
39.898	-0.011597	0.28732	0.072021	-0.002441	-0.035095	0.042572	-0.33005	-0.004578	0.025177	-0.042572	-0.16449	0.000458	-0.54871	0.12558	-0.089722	-0.013123	0.009918	-0.43762	-0.36941	-0.083771	-0.1059	-0.022125	0.4686	-0.065308	-0.015411	-0.010071	0.071716	-0.020905	0.24689	0.076141	-0.00885	-0.005493
39.899	-0.012512	0.29572	0.11261	0.012665	-0.046539	-0.059204	-0.24948	0.052338	0.018311	-0.031891	-0.084839	0.005798	-0.1535	0.242	0.004578	0.005798	-0.004883	-0.53314	-0.29221	-0.098724	-0.10956	-0.018921	0.46448	-0.056458	-0.012665	-0.011902	0.072327	-0.000763	0.14923	0.36758	-0.004578	0.00061
39.9	-0.015411	0.31235	0.071869	0.003204	-0.056763	-0.24139	-0.24567	0.00351	0.021515	-0.076599	-0.069733	0.002289	0.49927	0.14084	-0.13641	-0.007019	-0.012817	-0.64301	-0.18295	0.052643	-0.099792	-0.021973	0.4274	-0.054169	-0.015564	0.013428	0.112	0.011902	-0.10757	0.30456	-0.00473	0.001984
39.901	-0.001068	0.29923	-0.035858	0.000458	-0.030823	-0.11002	-0.24277	-0.006409	0.024109	-0.072327	-0.24475	-0.000305	0.34302	-0.007935	-0.34149	-0.001984	0.013123	-0.74143	-0.18875	0.14694	-0.095978	-0.022888	0.47287	-0.07019	-0.00946	0.034332	0.17517	-0.10696	-0.20874	0.18066	-0.005798	-0.006866
39.902	-0.003204	0.27359	-0.089722	-0.004272	-0.046234	-0.010986	-0.23727	0.014648	0.013733	-0.005493	-0.15671	-0.001526	-0.20599	-0.002747	-0.24017	-0.005341	0.052795	-0.85052	-0.32715	0.038757	-0.084229	-0.011597	0.44586	-0.030518	0.004578	0.045776	0.15335	-0.24384	0.34912	-0.016174	-0.00473	-0.00946
39.903	0.006561	0.28717	-0.019989	0.001984	-0.068359	0.054626	-0.23148	-0.00061	0.028229	0.079498	0.065155	0.000458	-0.68603	-0.016479	-0.10071	-0.006714	0.069122	-0.95169	-0.44052	-0.04425	-0.082245	0.008087	0.42282	-0.029144	-0.008698	0.048523	0.083008	-0.074463	0.625	-0.42389	-0.002441	-0.011749
39.904	0.013275	0.31616	0.056915	0.007324	-0.10193	0.15518	-0.26077	-0.001221	0.03418	0.12894	0.16037	0.004272	-0.32379	-0.10361	-0.20569	-0.01297	0.058594	-1.0599	-0.36774	-0.1091	-0.077362	0.008087	0.42145	-0.081482	0.000458	0.006866	0.01709	-0.017395	1.2164	-0.73624	-0.007019	-0.00824
39.905	0.008087	0.26749	0.003052	-0.00412	-0.11093	0.21347	-0.20813	0.002747	0.015106	0.066223	0.12466	0.001678	0.025024	-0.20096	0.17136	0.003967	0.019684	-1.1423	-0.29877	-0.062256	-0.083313	0.006714	0.49103	-0.066681	-0.00946	-0.006409	0.049896	0.16754	0.15045	-0.4187	-0.002594	-0.003967
39.906	0.00351	0.32166	-0.029144	0.015869	-0.12558	0.071564	-0.22064	0	0.004578	0.094604	0.008698	-0.00351	0.040894	0.10223	0.19379	0.001984	0.037689	-1.1571	-0.30182	-0.022125	-0.082855	0.014954	0.44235	-0.0383	-0.001221	-0.007324	0.033569	0.17746	-1.4807	-0.65338	-0.004578	-0.000763
39.907	0.015411	0.31189	-0.031586	-0.014496	0.020294	-0.36926	-0.19516	-0.00061	0.006409	0.075226	-0.19653	0.003662	0.17639	0.27985	1.0231	0.010681	0.058899	-1.2421	-0.35477	-0.031281	-0.085449	0.004883	0.41534	-0.073242	0.015411	0.014954	0.003052	0.003052	-1.2039	-0.51331	-0.011902	0.005951
39.908	0.012207	0.30777	-0.072327	-0.019836	0.15518	-0.50598	-0.19989	0.002136	-0.042419	-0.058899	-0.35172	0.014954	1.1909	0.3865	0.091705	0.003357	0.072784	-1.1675	-0.35568	0.1413	-0.092926	-0.011292	0.46661	-0.08316	0.010834	0.023193	-0.072937	-0.38086	-0.27634	-0.42404	-0.010529	-0.005798
39.909	0.003357	0.31921	-0.080566	-0.010376	-0.00412	-0.42129	-0.20554	0.016785	-0.094604	-0.18433	-0.19409	0.012665	1.4442	0.24338	-0.010376	-0.00061	0.083618	-1.1322	-0.34012	0.18524	-0.097961	-0.02182	0.44235	-0.045471	0.010986	-0.034485	-0.027161	0.35675	0.35065	-0.70053	-0.005188	-0.000305
39.91	-0.00061	0.28931	-0.039063	-0.012054	-0.09964	-0.28214	-0.20706	0.020294	-0.051575	-0.11398	-0.11063	0.007782	0.76843	-0.21271	-0.37979	0.011902	0.065002	-1.0646	-0.28305	0.054321	-0.10254	-0.022583	0.44022	-0.041962	0.003967	-0.041046	-0.036621	0.063782	1.0867	0.095825	-0.006256	-0.004272
39.911	0.014648	0.29678	0.04303	-0.010681	-0.068665	-0.38193	-0.24109	0.012817	0.055084	-0.21393	-0.14343	0.010071	-0.46616	-0.1445	-0.21835	0.031433	0.052795	-0.95627	-0.24124	-0.008698	-0.095062	-0.020142	0.41306	-0.036926	-0.011902	-0.023193	-0.005035	-0.21988	1.4832	0.73563	0.007324	-0.005646
39.912	0.007935	0.27527	-0.076904	-0.001831	0.024109	-0.39963	-0.24719	0.017395	0.11505	-0.18082	0.051727	-0.000153	-1.7586	-0.13412	-0.23804	0.020447	0.024567	-0.86319	-0.25345	-0.025635	-0.10056	-0.012512	0.47211	-0.049133	-0.012512	-0.01236	0.12955	-0.20721	0.31204	0.95993	-0.006256	-0.006714
39.913	0.006409	0.28915	-0.080414	-0.018158	0.062103	-0.4158	-0.23239	0.012207	0.22156	-0.12787	0.13229	0.000763	-1.0753	-0.056152	-0.41504	-0.019836	0.003052	-0.71945	-0.16464	0.020447	-0.090332	-0.01236	0.54535	-0.060883	-0.003662	0.005188	0.075989	0.068817	-0.56427	0.73273	-0.009155	-0.005493
39.914	0.016632	0.32028	-0.061951	-0.029907	0.014496	-0.28351	-0.10727	0.005341	0.29205	-0.15167	0.058899	0.008545	0.077515	-0.18585	-0.22858	-0.026703	-0.026093	-0.58166	-0.17792	0.027924	-0.089111	0.003815	0.30548	-0.060425	0	0.020294	-0.05188	0.13184	-1.7526	0.13214	-0.006104	-0.010834
39.915	0.006714	0.31784	0.026093	0.008392	0.006561	-0.076447	-0.093384	-0.013275	0.17929	-0.076752	0.005188	0.000458	-0.060272	-0.65079	-0.079346	-0.003052	-0.019379	-0.49118	-0.18997	-0.020447	-0.085754	-0.01236	0.21316	-0.098724	-0.00885	0.002747	-0.061035	0.0914	-1.8367	-0.33203	-0.003357	-0.016632
39.916	0.011139	0.31586	-0.042725	0.029449	-0.022125	0.04425	-0.103	-0.027313	0.10437	0.003052	-0.046539	-0.002136	-0.18921	-0.66696	0.10254	-0.021973	-0.015259	-0.42221	-0.1387	-0.14008	-0.071716	0.004272	0.30914	-0.079346	-0.001068	-0.040741	-0.084991	0.10757	-0.84473	0.15213	-0.00351	-0.024872
39.917	0.018463	0.34119	-0.1181	-0.007629	-0.066071	0.22201	-0.15823	-0.020752	0.10986	0.002594	-0.084686	0.006104	-0.43472	-0.49255	0.22614	-0.001526	-0.010681	-0.28427	-0.023193	-0.16296	-0.056915	0.025482	0.37415	-0.070953	0.000763	-0.053711	-0.04715	-0.1265	0.30548	0.31326	-0.007019	-0.020447
39.918	0.010986	0.31647	-0.17349	-0.013428	-0.071411	0.36865	-0.15717	-0.014191	-0.12787	0.052185	-0.074463	0.006714	0.25559	-0.14603	0.21332	-0.001221	-0.013123	-0.18509	0.006561	-0.073395	-0.042267	0.023499	0.35553	-0.04303	-0.006866	-0.039673	0.02655	-0.21881	0.62668	-0.10056	-0.002441	-0.022125
39.919	0.009003	0.32196	-0.01358	-0.007935	-0.026855	0.35507	-0.10651	-0.007019	-0.24353	0.070496	-0.06073	-0.008698	0.37354	-0.1767	0.21286	0.012207	0.044556	-0.12711	-0.05661	0.044556	-0.053101	0.027924	0.2945	0.031281	0.001221	-0.021515	0.028687	0.18723	0.37918	0.2182	-0.007629	-0.017853
